#!OML:ASF E:\Style4\Style4.ASF
:FULLY-SPECIFIED
:DEGREES
698
root -0.542338 17.2122 -3.29714 2.47989 10.3887 4.82411
lowerback 15.6774 3.44749 2.4267
upperback 10.0576 4.88775 1.61552
thorax 1.97909 2.55025 -0.32302
lowerneck 6.08455 -8.97079 -6.01107
upperneck -6.22418 -12.2351 4.61289
head -2.36821 -6.12476 2.94316
rclavicle 3.97569e-014 4.77083e-015
rhumerus 17.4457 54.8901 -77.4759
rradius 62.2084
rwrist -58.5801
rhand -27.367 24.0434
rfingers 7.12502
rthumb -0.774529 -5.93499
lclavicle 3.97569e-014 4.77083e-015
lhumerus 14.6263 -38.7998 55.513
lradius 83.7553
lwrist 51.3241
lhand -15.8426 28.274
lfingers 7.12502
lthumb 10.3519 57.9992
rfemur -27.5939 -6.82649 14.3104
rtibia 48.696
rfoot -21.4711 -15.6028
rtoes -8.11906
lfemur -25.8524 -2.48302 -23.432
ltibia 42.5587
lfoot -17.5782 2.77541
ltoes -14.959
699
root -0.546392 17.2081 -3.27647 2.51017 10.4004 4.88304
lowerback 15.6443 3.45072 2.46171
upperback 10.0084 4.89602 1.55743
thorax 1.95192 2.55702 -0.404051
lowerneck 6.07961 -8.9899 -5.91181
upperneck -6.22621 -12.2507 4.62695
head -2.37206 -6.13525 2.93128
rclavicle 3.97569e-014 -3.81667e-014
rhumerus 16.3142 56.3237 -78.0304
rradius 62.6755
rwrist -58.3439
rhand -27.2491 23.6906
rfingers 7.12502
rthumb -0.660696 -6.28808
lclavicle 3.97569e-014 -3.81667e-014
lhumerus 12.1505 -39.5442 56.354
lradius 84.9016
lwrist 50.6995
lhand -16.9077 28.5262
lfingers 7.12502
lthumb 9.32441 58.3
rfemur -27.5955 -6.88861 14.2703
rtibia 48.8137
rfoot -21.5963 -15.5625
rtoes -8.14424
lfemur -25.8405 -2.50987 -23.4804
ltibia 42.6461
lfoot -17.6621 2.80152
ltoes -15.0943
700
root -0.553611 17.2045 -3.25476 2.534 10.3243 4.85422
lowerback 15.5917 3.5172 2.49382
upperback 9.96021 4.98567 1.55902
thorax 1.93264 2.60233 -0.430567
lowerneck 6.07047 -9.02311 -5.86762
upperneck -6.24219 -12.29 4.63857
head -2.3753 -6.15608 2.9284
rclavicle 7.95139e-014 -2.70347e-014
rhumerus 15.418 57.8653 -78.2075
rradius 63.2403
rwrist -58.4996
rhand -26.9519 22.9383
rfingers 7.12502
rthumb -0.37362 -7.0411
lclavicle 7.95139e-014 -2.70347e-014
lhumerus 9.6392 -40.2895 57.3438
lradius 86.1113
lwrist 50.2556
lhand -17.4526 28.9203
lfingers 7.12502
lthumb 8.79858 58.7168
rfemur -27.6259 -6.79411 14.3477
rtibia 48.92
rfoot -21.7813 -15.5004
rtoes -7.86125
lfemur -25.8646 -2.44378 -23.4164
ltibia 42.7576
lfoot -17.731 2.86961
ltoes -15.2641
701
root -0.559056 17.1993 -3.2329 2.53043 10.2111 4.85896
lowerback 15.5644 3.58691 2.48357
upperback 9.93097 5.07471 1.56119
thorax 1.91669 2.64562 -0.433769
lowerneck 6.01638 -9.04965 -5.82936
upperneck -6.23853 -12.3197 4.6343
head -2.36493 -6.17145 2.91709
rclavicle -3.33958e-014 -1.11319e-014
rhumerus 14.5617 59.4359 -78.4033
rradius 63.7519
rwrist -58.7023
rhand -26.739 22.5973
rfingers 7.12502
rthumb -0.16799 -7.38236
lclavicle -3.33958e-014 -1.11319e-014
lhumerus 6.96539 -40.9765 58.5051
lradius 87.3725
lwrist 50.2037
lhand -17.8775 28.708
lfingers 7.12502
lthumb 8.38853 58.5214
rfemur -27.6241 -6.67825 14.3768
rtibia 49.0154
rfoot -21.9038 -15.5087
rtoes -8.03521
lfemur -25.8469 -2.35773 -23.3981
ltibia 42.8607
lfoot -17.88 3.00256
ltoes -15.7262
702
root -0.561232 17.1934 -3.20798 2.47667 10.1175 4.8546
lowerback 15.535 3.62646 2.51361
upperback 9.91772 5.12907 1.55665
thorax 1.92248 2.67411 -0.460625
lowerneck 5.96698 -9.08647 -5.75505
upperneck -6.2345 -12.3619 4.60587
head -2.35827 -6.19298 2.89252
rclavicle -6.59965e-014 1.74931e-014
rhumerus 13.4347 61.0343 -78.9807
rradius 64.172
rwrist -58.5343
rhand -26.7652 22.629
rfingers 7.12502
rthumb -0.193278 -7.35067
lclavicle -6.59965e-014 1.74931e-014
lhumerus 4.10768 -41.5589 59.8555
lradius 88.6692
lwrist 50.3416
lhand -18.2456 28.2299
lfingers 7.12502
lthumb 8.03331 58.0572
rfemur -27.532 -6.64488 14.3864
rtibia 49.0947
rfoot -21.9972 -15.4839
rtoes -8.34855
lfemur -25.7402 -2.27367 -23.3841
ltibia 42.9634
lfoot -18.0558 3.07006
ltoes -16.0582
